<?xml version="1.0" encoding="UTF-8"?>
<svg xmlns="http://www.w3.org/2000/svg" xmlns:xlink="http://www.w3.org/1999/xlink" width="16pt" height="16pt" viewBox="0 0 16 16" version="1.1">
<g id="surface1">
<path style=" stroke:none;fill-rule:nonzero;fill:rgb(23.137255%,34.901961%,59.607843%);fill-opacity:1;" d="M 16 8 C 16 12.417969 12.417969 16 8 16 C 3.582031 16 0 12.417969 0 8 C 0 3.582031 3.582031 0 8 0 C 12.417969 0 16 3.582031 16 8 Z M 16 8 "/>
<path style=" stroke:none;fill-rule:nonzero;fill:rgb(100%,100%,100%);fill-opacity:1;" d="M 10.011719 8.3125 L 8.582031 8.3125 L 8.582031 13.542969 L 6.421875 13.542969 L 6.421875 8.3125 L 5.390625 8.3125 L 5.390625 6.476562 L 6.421875 6.476562 L 6.421875 5.285156 C 6.421875 4.433594 6.824219 3.105469 8.601562 3.105469 L 10.203125 3.109375 L 10.203125 4.894531 L 9.042969 4.894531 C 8.851562 4.894531 8.582031 4.988281 8.582031 5.394531 L 8.582031 6.476562 L 10.199219 6.476562 Z M 10.011719 8.3125 "/>
</g>
</svg>
