<?xml version="1.0" encoding="UTF-8"?>
<svg xmlns="http://www.w3.org/2000/svg" xmlns:xlink="http://www.w3.org/1999/xlink" width="16pt" height="16pt" viewBox="0 0 16 16" version="1.1">
<defs>
<linearGradient id="linear0" gradientUnits="userSpaceOnUse" x1="-37.106" y1="-72.705" x2="-26.555" y2="-84.047" gradientTransform="matrix(0,-1.321333,-1.229333,0,-88.348,-34.051333)">
<stop offset="0" style="stop-color:rgb(100%,86.666667%,33.333333%);stop-opacity:1;"/>
<stop offset="0.5" style="stop-color:rgb(100%,32.941176%,24.313725%);stop-opacity:1;"/>
<stop offset="1" style="stop-color:rgb(78.431373%,21.568627%,67.058824%);stop-opacity:1;"/>
</linearGradient>
</defs>
<g id="surface1">
<path style=" stroke:none;fill-rule:nonzero;fill:url(#linear0);" d="M 1 1.089844 C -0.257812 2.394531 0 3.78125 0 7.996094 C 0 11.496094 -0.609375 15.003906 2.585938 15.832031 C 3.582031 16.089844 12.425781 16.089844 13.421875 15.828125 C 14.753906 15.488281 15.835938 14.40625 15.984375 12.523438 C 16.003906 12.261719 16.003906 3.734375 15.984375 3.46875 C 15.824219 1.460938 14.59375 0.308594 12.964844 0.0742188 C 12.59375 0.0195312 12.519531 0.00390625 10.605469 0 C 3.824219 0.00390625 2.339844 -0.296875 1 1.089844 Z M 1 1.089844 "/>
<path style=" stroke:none;fill-rule:nonzero;fill:rgb(100%,100%,100%);fill-opacity:1;" d="M 8 2.09375 C 5.578125 2.09375 3.28125 1.878906 2.402344 4.128906 C 2.039062 5.0625 2.089844 6.269531 2.089844 8 C 2.089844 9.519531 2.042969 10.945312 2.402344 11.871094 C 3.277344 14.125 5.59375 13.910156 7.996094 13.910156 C 10.316406 13.910156 12.707031 14.148438 13.59375 11.871094 C 13.957031 10.929688 13.902344 9.738281 13.902344 8 C 13.902344 5.691406 14.03125 4.203125 12.910156 3.085938 C 11.777344 1.949219 10.246094 2.09375 7.996094 2.09375 Z M 7.46875 3.15625 C 12.519531 3.148438 13.160156 2.589844 12.808594 10.386719 C 12.679688 13.144531 10.582031 12.839844 8 12.839844 C 3.292969 12.839844 3.15625 12.707031 3.15625 7.996094 C 3.15625 3.234375 3.53125 3.160156 7.46875 3.15625 Z M 11.152344 4.136719 C 10.761719 4.136719 10.441406 4.457031 10.441406 4.847656 C 10.441406 5.238281 10.761719 5.554688 11.152344 5.554688 C 11.542969 5.554688 11.859375 5.238281 11.859375 4.847656 C 11.859375 4.457031 11.542969 4.136719 11.152344 4.136719 Z M 8 4.964844 C 6.324219 4.964844 4.964844 6.324219 4.964844 8 C 4.964844 9.675781 6.324219 11.035156 8 11.035156 C 9.675781 11.035156 11.03125 9.675781 11.03125 8 C 11.03125 6.324219 9.675781 4.964844 8 4.964844 Z M 8 6.03125 C 10.601562 6.03125 10.605469 9.96875 8 9.96875 C 5.394531 9.96875 5.390625 6.03125 8 6.03125 Z M 8 6.03125 "/>
</g>
</svg>
