<?xml version="1.0" encoding="UTF-8"?>
<svg xmlns="http://www.w3.org/2000/svg" xmlns:xlink="http://www.w3.org/1999/xlink" width="40pt" height="40pt" viewBox="0 0 40 40" version="1.1">
<g id="surface1">
<path style=" stroke:none;fill-rule:nonzero;fill:rgb(99.215686%,0%,22.745098%);fill-opacity:1;" d="M 20 0 C 12.242188 0 5.9375 6.304688 5.9375 14.0625 C 5.9375 16.6875 6.664062 19.242188 8.046875 21.445312 L 19.046875 39.445312 C 19.234375 39.75 19.515625 39.9375 19.84375 39.984375 C 20.289062 40.054688 20.78125 39.867188 21.039062 39.421875 L 32.070312 21.257812 C 33.382812 19.101562 34.0625 16.59375 34.0625 14.0625 C 34.0625 6.304688 27.757812 0 20 0 Z M 20 21.09375 C 16.0625 21.09375 12.96875 17.90625 12.96875 14.0625 C 12.96875 10.195312 16.132812 7.03125 20 7.03125 C 23.867188 7.03125 27.03125 10.195312 27.03125 14.0625 C 27.03125 17.882812 23.984375 21.09375 20 21.09375 Z M 20 21.09375 "/>
<path style=" stroke:none;fill-rule:nonzero;fill:rgb(89.803922%,0%,15.294118%);fill-opacity:1;" d="M 20 0 L 20 7.03125 C 23.867188 7.03125 27.03125 10.195312 27.03125 14.0625 C 27.03125 17.882812 23.984375 21.09375 20 21.09375 L 20 40 C 20.398438 40.007812 20.8125 39.816406 21.039062 39.421875 L 32.070312 21.257812 C 33.382812 19.101562 34.0625 16.59375 34.0625 14.0625 C 34.0625 6.304688 27.757812 0 20 0 Z M 20 0 "/>
</g>
</svg>
