<?xml version="1.0" encoding="UTF-8"?>
<svg xmlns="http://www.w3.org/2000/svg" xmlns:xlink="http://www.w3.org/1999/xlink" width="45pt" height="45pt" viewBox="0 0 45 45" version="1.1">
<g id="surface1">
<path style=" stroke:none;fill-rule:nonzero;fill:rgb(0%,0%,0%);fill-opacity:1;" d="M 43.890625 4.078125 C 43.1875 3.375 42.25 2.980469 41.253906 2.96875 C 41.242188 2.96875 41.226562 2.96875 41.210938 2.96875 C 40.230469 2.96875 39.304688 3.339844 38.59375 4.019531 L 17.480469 24.210938 C 19.738281 24.785156 21.667969 26.238281 22.933594 28.359375 C 23.316406 29.003906 23.621094 29.6875 23.851562 30.394531 L 43.949219 9.375 C 44.628906 8.667969 45 7.738281 45 6.757812 C 45 5.746094 44.605469 4.796875 43.890625 4.078125 Z M 43.890625 4.078125 "/>
<path style=" stroke:none;fill-rule:nonzero;fill:rgb(0%,0%,0%);fill-opacity:1;" d="M 15.519531 26.574219 C 15.414062 26.570312 15.308594 26.566406 15.203125 26.566406 C 13.421875 26.566406 11.652344 27.1875 10.210938 28.222656 C 8.472656 29.472656 7.78125 31.269531 6.503906 32.90625 C 4.90625 34.957031 2.441406 35.960938 0 36.644531 C 1.421875 40.402344 6.707031 41.941406 10.171875 42.027344 C 10.296875 42.027344 10.421875 42.03125 10.550781 42.03125 C 14.472656 42.03125 19.09375 40.570312 20.988281 36.710938 C 23.0625 32.472656 20.503906 26.78125 15.519531 26.574219 Z M 15.519531 26.574219 "/>
</g>
</svg>
