<?xml version="1.0" encoding="UTF-8"?>
<svg xmlns="http://www.w3.org/2000/svg" xmlns:xlink="http://www.w3.org/1999/xlink" width="40pt" height="40pt" viewBox="0 0 40 40" version="1.1">
<g id="surface1">
<path style=" stroke:none;fill-rule:nonzero;fill:rgb(0%,0%,0%);fill-opacity:1;" d="M 39.320312 10.078125 C 34.160156 4.65625 27.300781 1.667969 20 1.667969 C 12.699219 1.667969 5.839844 4.65625 0.679688 10.078125 C -0.226562 11.035156 -0.226562 12.589844 0.679688 13.542969 L 4.523438 17.585938 C 5.429688 18.535156 7.027344 18.535156 7.933594 17.585938 C 9.21875 16.230469 10.679688 15.117188 12.269531 14.277344 C 13.066406 13.867188 13.578125 13.003906 13.574219 12.1875 L 14.152344 7.808594 C 18.40625 6.449219 21.640625 6.449219 25.847656 7.808594 L 26.421875 12.078125 C 26.421875 13.003906 26.910156 13.84375 27.710938 14.285156 C 29.308594 15.128906 30.769531 16.242188 32.058594 17.597656 C 32.507812 18.070312 33.113281 18.332031 33.761719 18.332031 C 34.410156 18.332031 35.015625 18.070312 35.464844 17.597656 L 39.320312 13.542969 C 40.226562 12.589844 40.226562 11.035156 39.320312 10.078125 Z M 39.320312 10.078125 "/>
<path style=" stroke:none;fill-rule:nonzero;fill:rgb(0%,0%,0%);fill-opacity:1;" d="M 30.84375 17.207031 C 30.117188 15.84375 28.707031 15 27.167969 15 L 12.832031 15 C 11.292969 15 9.882812 15.84375 9.15625 17.207031 L 3.824219 27.207031 C 3.503906 27.808594 3.332031 28.484375 3.332031 29.167969 L 3.332031 35 C 3.332031 36.839844 4.828125 38.332031 6.667969 38.332031 L 33.332031 38.332031 C 35.171875 38.332031 36.667969 36.839844 36.667969 35 L 36.667969 29.167969 C 36.667969 28.484375 36.496094 27.808594 36.175781 27.207031 Z M 15 33.332031 C 14.078125 33.332031 13.332031 32.585938 13.332031 31.667969 C 13.332031 30.746094 14.078125 30 15 30 C 15.917969 30 16.664062 30.746094 16.664062 31.667969 C 16.664062 32.585938 15.917969 33.332031 15 33.332031 Z M 15 28.332031 C 14.078125 28.332031 13.332031 27.585938 13.332031 26.667969 C 13.332031 25.746094 14.078125 25 15 25 C 15.917969 25 16.664062 25.746094 16.664062 26.667969 C 16.664062 27.585938 15.917969 28.332031 15 28.332031 Z M 15 23.332031 C 14.078125 23.332031 13.332031 22.585938 13.332031 21.667969 C 13.332031 20.746094 14.078125 20 15 20 C 15.917969 20 16.664062 20.746094 16.664062 21.667969 C 16.664062 22.585938 15.917969 23.332031 15 23.332031 Z M 20 33.332031 C 19.082031 33.332031 18.332031 32.585938 18.332031 31.667969 C 18.332031 30.746094 19.082031 30 20 30 C 20.917969 30 21.667969 30.746094 21.667969 31.667969 C 21.667969 32.585938 20.917969 33.332031 20 33.332031 Z M 20 28.332031 C 19.082031 28.332031 18.332031 27.585938 18.332031 26.667969 C 18.332031 25.746094 19.082031 25 20 25 C 20.917969 25 21.667969 25.746094 21.667969 26.667969 C 21.667969 27.585938 20.917969 28.332031 20 28.332031 Z M 20 23.332031 C 19.082031 23.332031 18.332031 22.585938 18.332031 21.667969 C 18.332031 20.746094 19.082031 20 20 20 C 20.917969 20 21.667969 20.746094 21.667969 21.667969 C 21.667969 22.585938 20.917969 23.332031 20 23.332031 Z M 25 33.332031 C 24.078125 33.332031 23.332031 32.585938 23.332031 31.667969 C 23.332031 30.746094 24.078125 30 25 30 C 25.917969 30 26.664062 30.746094 26.664062 31.667969 C 26.664062 32.585938 25.917969 33.332031 25 33.332031 Z M 25 28.332031 C 24.078125 28.332031 23.332031 27.585938 23.332031 26.667969 C 23.332031 25.746094 24.078125 25 25 25 C 25.917969 25 26.664062 25.746094 26.664062 26.667969 C 26.664062 27.585938 25.917969 28.332031 25 28.332031 Z M 25 23.332031 C 24.078125 23.332031 23.332031 22.585938 23.332031 21.667969 C 23.332031 20.746094 24.078125 20 25 20 C 25.917969 20 26.664062 20.746094 26.664062 21.667969 C 26.664062 22.585938 25.917969 23.332031 25 23.332031 Z M 25 23.332031 "/>
</g>
</svg>
