<?xml version="1.0" encoding="UTF-8"?>
<svg xmlns="http://www.w3.org/2000/svg" xmlns:xlink="http://www.w3.org/1999/xlink" width="16pt" height="16pt" viewBox="0 0 16 16" version="1.1">
<g id="surface1">
<path style=" stroke:none;fill-rule:nonzero;fill:rgb(1.176471%,66.27451%,95.686275%);fill-opacity:1;" d="M 16 3.039062 C 15.40625 3.300781 14.769531 3.472656 14.109375 3.558594 C 14.789062 3.152344 15.308594 2.511719 15.554688 1.742188 C 14.917969 2.121094 14.21875 2.390625 13.472656 2.539062 C 12.871094 1.898438 12.011719 1.5 11.078125 1.5 C 9.261719 1.5 7.800781 2.972656 7.800781 4.78125 C 7.800781 5.039062 7.820312 5.289062 7.875 5.527344 C 5.148438 5.394531 2.734375 4.089844 1.113281 2.097656 C 0.832031 2.589844 0.664062 3.152344 0.664062 3.757812 C 0.664062 4.890625 1.25 5.898438 2.121094 6.480469 C 1.59375 6.472656 1.078125 6.320312 0.640625 6.078125 C 0.640625 6.089844 0.640625 6.101562 0.640625 6.113281 C 0.640625 7.707031 1.777344 9.03125 3.269531 9.335938 C 3 9.410156 2.710938 9.445312 2.40625 9.445312 C 2.199219 9.445312 1.984375 9.433594 1.785156 9.390625 C 2.210938 10.6875 3.417969 11.644531 4.851562 11.675781 C 3.734375 12.546875 2.320312 13.074219 0.785156 13.074219 C 0.515625 13.074219 0.257812 13.0625 0 13.027344 C 1.453125 13.964844 3.175781 14.5 5.03125 14.5 C 11.066406 14.5 14.367188 9.5 14.367188 5.164062 C 14.367188 5.019531 14.363281 4.882812 14.355469 4.742188 C 15.007812 4.28125 15.554688 3.703125 16 3.039062 Z M 16 3.039062 "/>
</g>
</svg>
