<?xml version="1.0" encoding="UTF-8"?>
<svg xmlns="http://www.w3.org/2000/svg" xmlns:xlink="http://www.w3.org/1999/xlink" width="16pt" height="16pt" viewBox="0 0 16 16" version="1.1">
<g id="surface1">
<path style=" stroke:none;fill-rule:nonzero;fill:rgb(33.333333%,75.294118%,92.156863%);fill-opacity:1;" d="M 16 8 C 16 12.433594 12.433594 16 8 16 C 3.566406 16 0 12.433594 0 8 C 0 3.566406 3.566406 0 8 0 C 12.433594 0 16 3.566406 16 8 Z M 16 8 "/>
<path style=" stroke:none;fill-rule:nonzero;fill:rgb(95.294118%,95.294118%,95.294118%);fill-opacity:1;" d="M 0.601562 10.867188 C 0.601562 10.832031 0.601562 10.832031 0.601562 10.832031 C 0.632812 10.832031 0.632812 10.867188 0.601562 10.867188 C 0.667969 10.898438 0.667969 10.867188 0.699219 10.832031 C 0.699219 10.832031 0.667969 10.832031 0.667969 10.800781 C 0.667969 10.734375 0.699219 10.699219 0.765625 10.667969 C 0.765625 10.699219 0.765625 10.734375 0.800781 10.734375 C 0.832031 10.765625 0.867188 10.800781 0.898438 10.800781 C 0.933594 10.765625 0.964844 10.734375 1 10.699219 C 1.066406 10.734375 1.132812 10.800781 1.199219 10.832031 C 1.234375 10.867188 1.367188 10.867188 1.398438 10.832031 C 1.398438 10.832031 1.398438 10.800781 1.433594 10.800781 C 1.433594 10.800781 1.433594 10.765625 1.464844 10.765625 C 1.5 10.734375 1.5 10.734375 1.5 10.699219 C 1.5 10.667969 1.5 10.667969 1.5 10.632812 C 1.535156 10.667969 1.566406 10.734375 1.566406 10.765625 C 1.601562 10.867188 1.632812 10.867188 1.734375 10.867188 C 1.832031 10.867188 1.898438 10.832031 2 10.867188 C 2.035156 10.867188 2.035156 10.867188 2.066406 10.867188 C 2.132812 10.867188 2.167969 10.832031 2.199219 10.832031 C 2.300781 10.832031 2.332031 10.800781 2.398438 10.734375 C 2.433594 10.699219 2.464844 10.699219 2.5 10.699219 C 2.535156 10.699219 2.566406 10.699219 2.632812 10.699219 C 2.699219 10.734375 2.800781 10.734375 2.867188 10.800781 C 2.898438 10.832031 2.933594 10.832031 2.964844 10.867188 C 3.035156 10.867188 3.066406 10.832031 3.132812 10.832031 C 3.234375 10.832031 3.300781 10.765625 3.367188 10.734375 C 3.433594 10.699219 3.464844 10.667969 3.5 10.632812 C 3.535156 10.601562 3.566406 10.566406 3.632812 10.601562 L 3.667969 10.601562 C 3.699219 10.601562 3.765625 10.601562 3.800781 10.601562 C 3.933594 10.601562 4.035156 10.566406 4.101562 10.464844 C 4.132812 10.433594 4.132812 10.398438 4.101562 10.367188 C 4.066406 10.332031 4.066406 10.300781 4.066406 10.234375 C 4.066406 10.199219 4.066406 10.167969 4.066406 10.167969 C 4.066406 10.101562 4.035156 10.066406 4 10.035156 C 3.964844 10 3.933594 9.964844 3.933594 9.898438 C 3.898438 9.867188 3.898438 9.832031 3.867188 9.800781 C 3.898438 9.765625 3.867188 9.734375 3.867188 9.667969 C 3.867188 9.632812 3.832031 9.601562 3.832031 9.566406 C 3.800781 9.5 3.734375 9.566406 3.667969 9.535156 C 3.667969 9.535156 3.667969 9.535156 3.667969 9.5 C 3.699219 9.5 3.734375 9.5 3.765625 9.5 C 3.765625 9.464844 3.734375 9.464844 3.734375 9.433594 C 3.699219 9.398438 3.699219 9.398438 3.667969 9.367188 C 3.699219 9.367188 3.699219 9.367188 3.699219 9.367188 C 3.734375 9.367188 3.800781 9.398438 3.800781 9.300781 L 3.800781 9.265625 C 3.832031 9.234375 3.867188 9.167969 3.832031 9.132812 C 3.832031 9.035156 3.800781 8.933594 3.734375 8.867188 C 3.699219 8.832031 3.632812 8.800781 3.667969 8.734375 L 3.667969 8.667969 C 3.699219 8.601562 3.667969 8.535156 3.632812 8.5 C 3.667969 8.464844 3.667969 8.433594 3.632812 8.367188 C 3.601562 8.332031 3.601562 8.300781 3.667969 8.300781 C 3.632812 8.265625 3.566406 8.234375 3.535156 8.199219 C 3.5 8.167969 3.5 8.167969 3.464844 8.132812 C 3.433594 8.101562 3.433594 8.066406 3.433594 8.066406 C 3.398438 8.035156 3.367188 8.035156 3.398438 7.964844 L 3.398438 7.933594 C 3.398438 7.898438 3.367188 7.867188 3.367188 7.832031 C 3.367188 7.832031 3.367188 7.832031 3.332031 7.867188 C 3.265625 7.832031 3.234375 7.832031 3.199219 7.898438 C 3.199219 7.898438 3.167969 7.898438 3.167969 7.933594 C 3.167969 7.933594 3.167969 7.933594 3.167969 7.898438 C 3.167969 7.867188 3.199219 7.867188 3.199219 7.832031 C 3.234375 7.800781 3.265625 7.800781 3.265625 7.765625 C 3.300781 7.765625 3.300781 7.765625 3.332031 7.765625 C 3.332031 7.734375 3.332031 7.699219 3.300781 7.699219 C 3.265625 7.699219 3.234375 7.667969 3.199219 7.667969 C 3.167969 7.667969 3.132812 7.632812 3.101562 7.601562 C 3.066406 7.601562 3.066406 7.601562 3.035156 7.601562 C 3 7.601562 3 7.601562 2.964844 7.601562 C 2.933594 7.601562 2.898438 7.601562 2.898438 7.601562 C 2.898438 7.566406 2.898438 7.535156 2.898438 7.535156 C 2.898438 7.464844 2.867188 7.464844 2.832031 7.433594 C 2.734375 7.433594 2.667969 7.433594 2.667969 7.367188 C 2.667969 7.332031 2.667969 7.265625 2.699219 7.199219 C 2.699219 7.167969 2.734375 7.132812 2.734375 7.132812 C 2.765625 7.101562 2.800781 7.066406 2.867188 7.066406 C 2.933594 7.035156 2.933594 7 2.898438 6.933594 C 2.867188 6.867188 2.800781 6.832031 2.765625 6.765625 L 2.699219 6.699219 C 2.765625 6.667969 2.832031 6.632812 2.898438 6.601562 C 2.933594 6.566406 3 6.566406 3.035156 6.535156 L 3.066406 6.5 C 3.035156 6.464844 3.035156 6.433594 3 6.433594 C 2.933594 6.367188 2.867188 6.367188 2.800781 6.433594 C 2.765625 6.433594 2.734375 6.433594 2.699219 6.433594 C 2.667969 6.398438 2.667969 6.367188 2.632812 6.332031 C 2.566406 6.300781 2.566406 6.234375 2.566406 6.167969 C 2.601562 6.066406 2.632812 5.964844 2.699219 5.898438 C 2.734375 5.898438 2.734375 5.867188 2.765625 5.832031 C 2.800781 5.800781 2.800781 5.800781 2.867188 5.800781 L 2.898438 5.800781 C 2.898438 5.800781 2.898438 5.765625 2.933594 5.765625 C 2.964844 5.734375 3 5.699219 3 5.699219 C 3.035156 5.734375 3.066406 5.699219 3.101562 5.699219 C 3.132812 5.765625 3.167969 5.765625 3.199219 5.734375 C 3.234375 5.734375 3.234375 5.765625 3.234375 5.765625 C 3.265625 5.800781 3.332031 5.832031 3.332031 5.898438 C 3.332031 5.964844 3.398438 6 3.433594 6.035156 C 3.433594 6 3.464844 6 3.464844 5.964844 L 3.433594 5.933594 C 3.433594 5.933594 3.464844 5.933594 3.464844 5.964844 C 3.5 6 3.566406 6.035156 3.601562 6.101562 C 3.632812 6.132812 3.632812 6.167969 3.632812 6.199219 C 3.632812 6.234375 3.667969 6.234375 3.667969 6.265625 C 3.734375 6.300781 3.734375 6.367188 3.699219 6.433594 C 3.667969 6.464844 3.632812 6.5 3.632812 6.535156 C 3.601562 6.601562 3.601562 6.632812 3.601562 6.699219 C 3.632812 6.734375 3.667969 6.734375 3.699219 6.699219 C 3.734375 6.667969 3.765625 6.632812 3.765625 6.632812 C 3.800781 6.566406 3.832031 6.5 3.867188 6.433594 C 3.898438 6.398438 4 6.367188 4.035156 6.367188 C 4.066406 6.367188 4.101562 6.367188 4.167969 6.398438 L 4.199219 6.398438 C 4.265625 6.433594 4.300781 6.433594 4.367188 6.464844 L 4.398438 6.433594 C 4.433594 6.433594 4.433594 6.433594 4.464844 6.464844 C 4.464844 6.464844 4.464844 6.433594 4.433594 6.433594 C 4.464844 6.433594 4.464844 6.464844 4.5 6.464844 C 4.535156 6.398438 4.566406 6.367188 4.601562 6.300781 C 4.632812 6.265625 4.667969 6.265625 4.667969 6.234375 C 4.667969 6.265625 4.632812 6.300781 4.601562 6.300781 C 4.566406 6.332031 4.566406 6.332031 4.535156 6.367188 C 4.601562 6.332031 4.667969 6.332031 4.699219 6.265625 L 4.699219 6.300781 C 4.765625 6.300781 4.800781 6.300781 4.832031 6.234375 C 4.867188 6.265625 4.898438 6.265625 4.933594 6.300781 C 4.898438 6.300781 4.898438 6.265625 4.867188 6.265625 C 4.933594 6.300781 5 6.332031 5.035156 6.398438 C 5.035156 6.367188 5.066406 6.332031 5.066406 6.332031 C 5.101562 6.300781 5.167969 6.265625 5.234375 6.300781 C 5.265625 6.300781 5.265625 6.300781 5.300781 6.300781 C 5.332031 6.332031 5.367188 6.367188 5.433594 6.332031 L 5.464844 6.332031 C 5.5 6.367188 5.566406 6.398438 5.601562 6.398438 C 5.601562 6.398438 5.566406 6.398438 5.566406 6.433594 C 5.566406 6.433594 5.535156 6.433594 5.5 6.398438 C 5.433594 6.398438 5.398438 6.433594 5.433594 6.5 C 5.566406 6.464844 5.632812 6.566406 5.734375 6.601562 L 5.734375 6.566406 C 5.734375 6.535156 5.734375 6.5 5.667969 6.5 C 5.632812 6.5 5.632812 6.367188 5.632812 6.332031 C 5.667969 6.300781 5.667969 6.234375 5.699219 6.234375 C 5.667969 6.199219 5.667969 6.167969 5.667969 6.132812 L 5.699219 6.167969 C 5.734375 6.167969 5.765625 6.199219 5.800781 6.167969 C 5.832031 6.132812 5.832031 6.101562 5.800781 6.066406 C 5.765625 6.035156 5.734375 6 5.667969 5.964844 C 5.601562 5.933594 5.535156 5.933594 5.433594 5.898438 C 5.5 5.898438 5.601562 5.898438 5.667969 5.898438 C 5.667969 5.898438 5.667969 5.898438 5.699219 5.898438 C 5.734375 5.898438 5.734375 5.898438 5.765625 5.898438 C 5.800781 5.898438 5.832031 5.898438 5.867188 5.898438 C 5.933594 5.964844 6 6.035156 6.066406 6.132812 C 6.101562 6.167969 6.167969 6.234375 6.199219 6.234375 C 6.265625 6.234375 6.332031 6.234375 6.367188 6.300781 C 6.398438 6.332031 6.464844 6.332031 6.5 6.300781 L 6.535156 6.265625 C 6.566406 6.265625 6.566406 6.234375 6.566406 6.199219 C 6.566406 6.167969 6.535156 6.167969 6.535156 6.132812 L 6.566406 6.101562 C 6.535156 6.066406 6.5 6.066406 6.464844 6.066406 C 6.464844 6.035156 6.464844 6.035156 6.5 6.035156 C 6.535156 6.035156 6.535156 6.066406 6.566406 6.066406 C 6.535156 6 6.535156 5.933594 6.5 5.867188 C 6.535156 5.832031 6.535156 5.832031 6.5 5.800781 L 6.5 5.765625 C 6.5 5.734375 6.5 5.699219 6.5 5.667969 C 6.535156 5.667969 6.566406 5.667969 6.566406 5.667969 C 6.601562 5.632812 6.601562 5.601562 6.601562 5.566406 C 6.601562 5.535156 6.632812 5.535156 6.632812 5.5 L 6.601562 5.5 L 6.632812 5.5 C 6.632812 5.5 6.632812 5.464844 6.601562 5.464844 L 6.632812 5.433594 C 6.632812 5.398438 6.667969 5.398438 6.667969 5.367188 C 6.667969 5.332031 6.699219 5.300781 6.699219 5.234375 L 6.699219 5.199219 C 6.667969 5.199219 6.632812 5.199219 6.601562 5.234375 C 6.566406 5.265625 6.535156 5.265625 6.5 5.265625 L 6.464844 5.265625 C 6.433594 5.265625 6.398438 5.265625 6.367188 5.265625 C 6.367188 5.234375 6.367188 5.199219 6.398438 5.132812 C 6.367188 5.101562 6.367188 5.101562 6.332031 5.066406 C 6.367188 5.066406 6.367188 5.066406 6.398438 5.066406 C 6.433594 5.035156 6.5 5 6.464844 4.933594 L 6.5 4.964844 L 6.601562 4.867188 L 6.566406 4.832031 C 6.566406 4.800781 6.566406 4.800781 6.535156 4.765625 C 6.5 4.734375 6.5 4.734375 6.535156 4.699219 C 6.535156 4.667969 6.566406 4.632812 6.566406 4.601562 C 6.601562 4.566406 6.601562 4.464844 6.535156 4.464844 C 6.5 4.464844 6.464844 4.433594 6.464844 4.398438 C 6.464844 4.367188 6.433594 4.332031 6.433594 4.332031 L 6.398438 4.300781 C 6.332031 4.300781 6.300781 4.332031 6.332031 4.398438 C 6.234375 4.398438 6.199219 4.5 6.167969 4.535156 C 6.132812 4.566406 6.101562 4.601562 6.035156 4.566406 C 6 4.535156 5.964844 4.566406 5.964844 4.601562 C 5.964844 4.667969 5.933594 4.734375 5.898438 4.800781 C 5.867188 4.832031 5.832031 4.867188 5.832031 4.898438 L 5.867188 4.933594 C 5.867188 4.933594 5.867188 4.933594 5.832031 4.933594 L 5.800781 4.933594 C 5.734375 4.964844 5.699219 4.933594 5.632812 4.933594 C 5.601562 4.933594 5.601562 4.933594 5.566406 4.933594 C 5.5 5 5.464844 5.066406 5.398438 5.167969 L 5.367188 5.167969 C 5.367188 5.167969 5.332031 5.199219 5.332031 5.234375 C 5.300781 5.199219 5.300781 5.167969 5.265625 5.199219 C 5.265625 5.167969 5.234375 5.167969 5.234375 5.132812 C 5.332031 5.066406 5.332031 5.035156 5.332031 5 L 5.367188 4.964844 C 5.367188 4.933594 5.367188 4.898438 5.398438 4.898438 C 5.464844 4.832031 5.5 4.800781 5.566406 4.734375 C 5.535156 4.699219 5.535156 4.667969 5.5 4.632812 C 5.464844 4.601562 5.433594 4.566406 5.433594 4.566406 C 5.433594 4.5 5.398438 4.464844 5.398438 4.433594 L 5.398438 4.398438 C 5.398438 4.265625 5.398438 4.167969 5.265625 4.101562 C 5.300781 4.066406 5.332031 4 5.367188 3.964844 C 5.398438 3.933594 5.398438 3.898438 5.367188 3.867188 C 5.367188 3.867188 5.332031 3.800781 5.367188 3.800781 C 5.433594 3.734375 5.5 3.699219 5.566406 3.667969 C 5.601562 3.632812 5.632812 3.632812 5.667969 3.601562 C 5.734375 3.632812 5.832031 3.601562 5.898438 3.566406 C 5.933594 3.601562 5.964844 3.601562 6 3.601562 C 6.035156 3.601562 6.035156 3.566406 6.066406 3.535156 C 6.066406 3.566406 6.101562 3.566406 6.132812 3.535156 C 6.167969 3.535156 6.167969 3.5 6.199219 3.535156 C 6.199219 3.566406 6.265625 3.566406 6.265625 3.566406 C 6.332031 3.566406 6.367188 3.535156 6.433594 3.535156 C 6.398438 3.464844 6.332031 3.398438 6.367188 3.300781 C 6.367188 3.332031 6.398438 3.398438 6.398438 3.433594 C 6.398438 3.433594 6.398438 3.464844 6.433594 3.464844 C 6.464844 3.5 6.601562 3.464844 6.601562 3.464844 L 6.601562 3.398438 L 6.632812 3.398438 L 6.667969 3.433594 C 6.601562 3.5 6.699219 3.5 6.699219 3.535156 C 6.699219 3.5 6.734375 3.5 6.734375 3.464844 C 6.734375 3.5 6.734375 3.535156 6.734375 3.566406 C 6.800781 3.566406 6.867188 3.566406 6.933594 3.566406 C 6.964844 3.566406 6.964844 3.535156 7 3.5 C 7.035156 3.464844 7.035156 3.398438 7.066406 3.367188 C 7.132812 3.398438 7.167969 3.433594 7.167969 3.332031 L 7.199219 3.332031 C 7.167969 3.300781 7.167969 3.234375 7.199219 3.199219 L 7.199219 3.167969 C 7.167969 3.132812 7.132812 3.066406 7.101562 3.035156 C 7.066406 3.066406 7 3.101562 7.035156 3.167969 C 7 3.167969 7 3.199219 6.964844 3.199219 C 6.933594 3.199219 6.933594 3.167969 6.898438 3.167969 C 6.832031 3.199219 6.800781 3.199219 6.734375 3.234375 C 6.699219 3.265625 6.667969 3.265625 6.632812 3.234375 C 6.632812 3.199219 6.667969 3.167969 6.667969 3.132812 C 6.667969 3.101562 6.699219 3.066406 6.765625 3.101562 C 6.800781 3.066406 6.800781 3 6.832031 2.964844 C 6.832031 2.933594 6.832031 2.933594 6.800781 2.933594 C 6.765625 2.933594 6.765625 2.964844 6.734375 2.964844 C 6.667969 2.964844 6.667969 3 6.632812 3 C 6.667969 2.933594 6.699219 2.898438 6.699219 2.867188 C 6.699219 2.832031 6.699219 2.832031 6.734375 2.832031 L 6.734375 2.800781 C 6.734375 2.765625 6.699219 2.734375 6.699219 2.734375 C 6.734375 2.734375 6.765625 2.699219 6.800781 2.699219 C 6.800781 2.699219 6.800781 2.699219 6.832031 2.699219 C 6.832031 2.667969 6.832031 2.601562 6.867188 2.566406 C 6.867188 2.535156 6.898438 2.5 6.933594 2.464844 L 6.933594 2.433594 C 6.933594 2.398438 6.964844 2.367188 6.964844 2.367188 C 6.964844 2.332031 6.964844 2.332031 7 2.300781 C 6.964844 2.332031 6.933594 2.332031 6.867188 2.367188 C 6.832031 2.332031 6.765625 2.367188 6.734375 2.464844 L 6.699219 2.464844 C 6.667969 2.464844 6.632812 2.5 6.632812 2.566406 C 6.632812 2.632812 6.601562 2.699219 6.667969 2.734375 C 6.632812 2.734375 6.601562 2.765625 6.535156 2.800781 C 6.566406 2.800781 6.566406 2.832031 6.601562 2.832031 C 6.566406 2.898438 6.464844 2.898438 6.398438 2.832031 C 6.367188 2.867188 6.332031 2.898438 6.300781 2.933594 C 6.265625 2.832031 6.367188 2.832031 6.398438 2.800781 L 6.367188 2.800781 C 6.398438 2.734375 6.367188 2.699219 6.300781 2.667969 C 6.300781 2.699219 6.265625 2.734375 6.265625 2.765625 L 6.300781 2.800781 C 6.300781 2.800781 6.265625 2.800781 6.234375 2.832031 C 6.234375 2.765625 6.234375 2.734375 6.234375 2.699219 L 6.199219 2.734375 C 6.167969 2.699219 6.101562 2.632812 6.066406 2.601562 C 6 2.464844 5.964844 2.464844 6 2.398438 C 6 2.367188 6 2.332031 5.964844 2.300781 C 5.933594 2.300781 5.933594 2.199219 5.964844 2.167969 C 6.035156 2.066406 6 2.066406 5.933594 2.035156 C 5.933594 2.035156 5.898438 2.035156 5.898438 2 C 5.867188 2 5.832031 2 5.800781 2 C 5.800781 2.101562 5.800781 2.101562 5.867188 2.066406 C 5.867188 2.101562 5.898438 2.101562 5.898438 2.101562 C 5.933594 2.101562 5.964844 2.101562 5.964844 2.101562 C 5.933594 2.132812 5.898438 2.132812 5.832031 2.101562 C 5.800781 2.066406 5.734375 2.101562 5.734375 2.132812 C 5.734375 2.167969 5.699219 2.199219 5.699219 2.199219 C 5.699219 2.199219 5.667969 2.199219 5.632812 2.199219 C 5.632812 2.167969 5.632812 2.167969 5.632812 2.167969 C 5.667969 2.167969 5.699219 2.167969 5.667969 2.132812 C 5.667969 2.101562 5.667969 2.101562 5.667969 2.066406 L 5.667969 2.035156 C 5.667969 2 5.667969 1.964844 5.632812 1.933594 C 5.5 1.898438 5.433594 1.800781 5.398438 1.699219 C 5.464844 1.667969 5.464844 1.699219 5.535156 1.734375 C 5.535156 1.667969 5.566406 1.632812 5.566406 1.601562 L 5.535156 1.566406 C 5.5 1.566406 5.5 1.535156 5.5 1.535156 C 5.464844 1.433594 5.398438 1.332031 5.398438 1.199219 C 5.398438 1.167969 5.367188 1.132812 5.332031 1.101562 C 5.332031 1.101562 5.300781 1.101562 5.265625 1.101562 C 5.234375 1.101562 5.234375 1.101562 5.199219 1.066406 C 5.234375 1.035156 5.265625 1 5.300781 0.933594 C 5.234375 0.933594 5.199219 0.964844 5.167969 0.964844 L 5.132812 0.964844 C 5.132812 0.964844 5.101562 0.933594 5.132812 0.933594 C 5.132812 0.898438 5.167969 0.832031 5.199219 0.800781 C 5.199219 0.765625 5.234375 0.734375 5.234375 0.699219 C 5.234375 0.699219 5.234375 0.699219 5.199219 0.699219 C 5.199219 0.734375 5.199219 0.734375 5.167969 0.765625 C 5.132812 0.765625 5.101562 0.800781 5.066406 0.734375 C 5.066406 0.734375 5.035156 0.699219 5 0.699219 C 5.101562 0.699219 5.101562 0.699219 5.101562 0.667969 C 5 0.632812 4.898438 0.632812 4.832031 0.601562 C 4.300781 0.832031 3.832031 1.101562 3.367188 1.433594 C 3.367188 1.5 3.367188 1.535156 3.367188 1.601562 C 3.367188 1.601562 3.398438 1.601562 3.398438 1.632812 C 3.398438 1.632812 3.398438 1.601562 3.433594 1.601562 C 3.433594 1.601562 3.433594 1.566406 3.433594 1.535156 L 3.464844 1.535156 C 3.464844 1.566406 3.464844 1.632812 3.464844 1.667969 C 3.5 1.632812 3.5 1.601562 3.535156 1.566406 C 3.535156 1.601562 3.535156 1.601562 3.5 1.632812 C 3.5 1.667969 3.464844 1.667969 3.464844 1.699219 C 3.464844 1.765625 3.464844 1.800781 3.433594 1.832031 C 3.433594 1.832031 3.433594 1.867188 3.398438 1.867188 C 3.398438 1.898438 3.367188 1.933594 3.367188 1.964844 L 3.367188 2 C 3.332031 2 3.332031 2 3.300781 2.035156 L 3.332031 2.066406 C 3.332031 2.066406 3.332031 2.101562 3.332031 2.132812 C 3.332031 2.132812 3.332031 2.167969 3.367188 2.167969 C 3.367188 2.167969 3.332031 2.167969 3.300781 2.167969 C 3.332031 2.167969 3.332031 2.199219 3.367188 2.199219 C 3.300781 2.300781 3.265625 2.332031 3.265625 2.332031 C 3.265625 2.332031 3.265625 2.367188 3.234375 2.367188 C 3.234375 2.433594 3.234375 2.5 3.199219 2.566406 C 3.199219 2.566406 3.199219 2.566406 3.199219 2.601562 C 3.199219 2.632812 3.167969 2.734375 3.167969 2.734375 C 3.101562 2.765625 3.132812 2.765625 3.167969 2.800781 C 3.167969 2.800781 3.167969 2.832031 3.167969 2.867188 C 3.101562 2.800781 3.101562 2.765625 3.066406 2.699219 L 3.066406 2.734375 C 3.035156 2.734375 3.035156 2.765625 3.035156 2.765625 C 3.035156 2.800781 3.066406 2.832031 3.035156 2.898438 C 3.035156 2.933594 3.035156 3 3.035156 3.066406 C 3 3.066406 2.898438 3.234375 2.898438 3.265625 C 2.867188 3.265625 2.867188 3.265625 2.832031 3.300781 C 2.765625 3.332031 2.734375 3.367188 2.667969 3.433594 C 2.632812 3.464844 2.601562 3.5 2.566406 3.535156 C 2.535156 3.566406 2.5 3.601562 2.464844 3.632812 L 2.433594 3.667969 C 2.398438 3.699219 2.398438 3.734375 2.398438 3.734375 C 2.367188 3.800781 2.367188 3.832031 2.398438 3.867188 L 2.367188 3.898438 C 2.367188 3.933594 2.332031 4 2.332031 4.035156 C 2.332031 4.066406 2.332031 4.066406 2.332031 4.101562 C 2.300781 4.132812 2.332031 4.167969 2.332031 4.199219 C 2.332031 4.265625 2.367188 4.332031 2.332031 4.367188 C 2.332031 4.433594 2.265625 4.5 2.265625 4.566406 C 2.234375 4.601562 2.234375 4.667969 2.234375 4.699219 C 2.234375 4.734375 2.234375 4.765625 2.234375 4.765625 C 2.234375 4.800781 2.199219 4.800781 2.199219 4.800781 L 2.167969 4.765625 C 2.167969 4.800781 2.167969 4.867188 2.167969 4.898438 C 2.199219 4.964844 2.167969 5 2.132812 5.035156 L 2.101562 5.066406 C 2.101562 5.132812 2.101562 5.199219 2.101562 5.265625 C 2.132812 5.265625 2.167969 5.234375 2.167969 5.199219 C 2.167969 5.167969 2.167969 5.132812 2.167969 5.132812 C 2.234375 5.035156 2.234375 4.933594 2.265625 4.832031 L 2.265625 4.800781 C 2.265625 4.699219 2.300781 4.632812 2.367188 4.566406 C 2.367188 4.632812 2.433594 4.667969 2.367188 4.734375 C 2.332031 4.765625 2.332031 4.832031 2.300781 4.867188 L 2.300781 4.898438 C 2.300781 4.964844 2.300781 5.035156 2.300781 5.101562 C 2.300781 5.132812 2.300781 5.167969 2.265625 5.167969 C 2.265625 5.167969 2.265625 5.199219 2.265625 5.234375 L 2.265625 5.265625 C 2.265625 5.332031 2.234375 5.398438 2.234375 5.464844 C 2.234375 5.535156 2.199219 5.601562 2.132812 5.632812 C 2.101562 5.667969 2.066406 5.667969 2.101562 5.699219 C 2.101562 5.765625 2.101562 5.867188 2.167969 5.933594 L 2.167969 5.964844 C 2.167969 6 2.199219 6.066406 2.199219 6.101562 C 2.199219 6.132812 2.234375 6.199219 2.234375 6.234375 C 2.300781 6.265625 2.332031 6.332031 2.367188 6.332031 C 2.433594 6.367188 2.464844 6.398438 2.464844 6.5 C 2.464844 6.667969 2.535156 6.765625 2.601562 6.867188 C 2.601562 6.898438 2.601562 6.898438 2.566406 6.933594 C 2.566406 7 2.566406 7.035156 2.535156 7.066406 L 2.535156 7.132812 C 2.566406 7.167969 2.566406 7.199219 2.566406 7.234375 C 2.566406 7.265625 2.566406 7.300781 2.601562 7.332031 C 2.601562 7.367188 2.632812 7.367188 2.632812 7.398438 C 2.632812 7.433594 2.632812 7.433594 2.632812 7.464844 L 2.667969 7.464844 C 2.667969 7.398438 2.667969 7.398438 2.800781 7.433594 C 2.800781 7.464844 2.800781 7.5 2.800781 7.5 C 2.765625 7.535156 2.734375 7.601562 2.734375 7.632812 C 2.699219 7.667969 2.632812 7.699219 2.632812 7.765625 C 2.601562 7.765625 2.566406 7.765625 2.535156 7.734375 C 2.464844 7.765625 2.367188 7.734375 2.265625 7.765625 C 2.234375 7.800781 2.199219 7.800781 2.199219 7.832031 L 2.234375 7.867188 C 2.199219 7.898438 2.199219 7.898438 2.132812 7.867188 C 2.101562 7.867188 2.035156 7.933594 2.035156 7.964844 C 2.035156 8.066406 2 8.167969 1.964844 8.265625 C 1.933594 8.332031 1.933594 8.367188 1.898438 8.433594 C 1.898438 8.464844 1.867188 8.5 1.832031 8.535156 L 1.832031 8.566406 C 1.832031 8.667969 1.832031 8.734375 1.867188 8.832031 C 1.898438 8.933594 1.933594 9.035156 1.832031 9.101562 C 1.734375 9.199219 1.601562 9.300781 1.5 9.367188 C 1.464844 9.398438 1.433594 9.433594 1.367188 9.433594 C 1.234375 9.5 1.132812 9.566406 1.035156 9.667969 C 1.035156 9.667969 1.035156 9.699219 1 9.699219 C 0.898438 9.734375 0.800781 9.800781 0.699219 9.832031 C 0.632812 9.867188 0.535156 9.898438 0.5 9.964844 L 0.464844 10 C 0.433594 10 0.433594 10.035156 0.398438 10.035156 C 0.464844 10.234375 0.535156 10.464844 0.601562 10.667969 C 0.566406 10.867188 0.566406 10.867188 0.601562 10.867188 Z M 0.601562 10.867188 "/>
<path style=" stroke:none;fill-rule:nonzero;fill:rgb(95.294118%,95.294118%,95.294118%);fill-opacity:1;" d="M 15.832031 6.433594 C 15.734375 6.5 15.734375 6.5 15.632812 6.464844 C 15.632812 6.464844 15.601562 6.464844 15.601562 6.433594 C 15.535156 6.398438 15.535156 6.398438 15.5 6.464844 C 15.398438 6.464844 15.398438 6.398438 15.367188 6.332031 C 15.367188 6.398438 15.332031 6.433594 15.332031 6.464844 C 15.332031 6.5 15.300781 6.566406 15.300781 6.601562 C 15.265625 6.566406 15.265625 6.566406 15.265625 6.566406 C 15.234375 6.566406 15.199219 6.535156 15.199219 6.464844 C 15.199219 6.433594 15.167969 6.433594 15.167969 6.398438 C 15.132812 6.367188 15.167969 6.332031 15.167969 6.332031 C 15.199219 6.300781 15.199219 6.265625 15.199219 6.234375 L 15.199219 6.199219 C 15.234375 6.132812 15.199219 6.101562 15.132812 6.035156 C 15.101562 6 15.035156 5.964844 15 6 C 14.964844 5.964844 14.898438 5.933594 14.867188 5.933594 C 14.832031 5.898438 14.800781 5.933594 14.800781 5.964844 C 14.800781 6 14.800781 6.035156 14.800781 6.035156 C 14.800781 6.066406 14.800781 6.101562 14.765625 6.101562 C 14.667969 6.132812 14.601562 6.101562 14.535156 6.066406 C 14.5 6.035156 14.464844 6.035156 14.5 5.964844 C 14.332031 5.898438 14.234375 5.898438 14.132812 5.964844 C 14.167969 5.964844 14.167969 6 14.199219 6 C 14.167969 6 14.167969 6.035156 14.132812 6.035156 C 14.132812 6 14.132812 5.964844 14.132812 5.933594 C 14.132812 5.898438 14.101562 5.867188 14.101562 5.867188 C 14.101562 5.898438 14.066406 5.933594 14.066406 5.933594 C 14.035156 5.933594 14 5.933594 13.964844 5.867188 C 13.933594 5.867188 13.898438 5.867188 13.898438 5.832031 C 13.867188 5.867188 13.867188 5.867188 13.867188 5.933594 C 13.933594 5.898438 13.933594 5.898438 13.933594 5.933594 C 13.898438 5.933594 13.867188 5.964844 13.832031 5.964844 C 13.832031 6 13.734375 6.035156 13.632812 6.035156 C 13.667969 6 13.699219 5.964844 13.734375 5.933594 C 13.765625 5.933594 13.800781 5.933594 13.800781 5.898438 C 13.800781 5.867188 13.832031 5.832031 13.867188 5.832031 C 13.898438 5.765625 13.933594 5.699219 14 5.699219 C 14 5.699219 14 5.699219 14.035156 5.699219 C 14.066406 5.667969 14.101562 5.632812 14.101562 5.601562 C 14.132812 5.566406 14.132812 5.535156 14.132812 5.5 C 14.132812 5.464844 14.101562 5.433594 14.132812 5.367188 L 14.132812 5.332031 C 14.132812 5.300781 14.101562 5.265625 14.101562 5.265625 C 14.101562 5.265625 14.101562 5.265625 14.066406 5.300781 C 14.066406 5.265625 14.066406 5.234375 14.035156 5.234375 C 13.964844 5.167969 13.933594 5.101562 13.832031 5.132812 L 13.800781 5.132812 C 13.765625 5.132812 13.734375 5.132812 13.734375 5.167969 C 13.699219 5.199219 13.667969 5.234375 13.632812 5.199219 C 13.667969 5.167969 13.667969 5.167969 13.699219 5.132812 C 13.734375 5.066406 13.734375 5.066406 13.667969 5.035156 C 13.632812 5.035156 13.632812 5.035156 13.601562 5 L 13.566406 5 C 13.566406 4.964844 13.601562 4.964844 13.601562 4.933594 C 13.632812 4.898438 13.632812 4.867188 13.601562 4.832031 C 13.566406 4.832031 13.566406 4.800781 13.535156 4.800781 C 13.5 4.765625 13.433594 4.800781 13.433594 4.832031 C 13.398438 4.867188 13.367188 4.933594 13.332031 4.964844 C 13.332031 5 13.300781 5.035156 13.300781 5.066406 C 13.300781 5.101562 13.300781 5.101562 13.300781 5.132812 C 13.234375 5.132812 13.199219 5.132812 13.132812 5.167969 C 13.167969 5.199219 13.199219 5.234375 13.167969 5.300781 C 13.132812 5.265625 13.132812 5.265625 13.101562 5.234375 C 13 5.265625 13 5.300781 12.964844 5.332031 C 12.933594 5.332031 12.933594 5.367188 12.898438 5.367188 C 12.898438 5.367188 12.867188 5.367188 12.867188 5.332031 C 12.898438 5.300781 12.867188 5.300781 12.832031 5.300781 C 12.800781 5.300781 12.765625 5.300781 12.699219 5.300781 C 12.667969 5.300781 12.667969 5.300781 12.632812 5.300781 L 12.667969 5.332031 C 12.632812 5.332031 12.632812 5.332031 12.632812 5.367188 C 12.566406 5.398438 12.5 5.398438 12.464844 5.433594 C 12.433594 5.433594 12.367188 5.464844 12.367188 5.5 C 12.332031 5.535156 12.300781 5.566406 12.265625 5.535156 L 12.300781 5.566406 C 12.300781 5.601562 12.265625 5.632812 12.265625 5.667969 C 12.234375 5.667969 12.234375 5.632812 12.199219 5.632812 C 12.167969 5.699219 12.234375 5.667969 12.234375 5.699219 L 12.199219 5.734375 C 12.199219 5.765625 12.234375 5.765625 12.234375 5.800781 C 12.234375 5.832031 12.199219 5.867188 12.167969 5.867188 C 12.066406 5.867188 11.964844 5.898438 11.867188 5.933594 C 11.800781 5.933594 11.765625 6.035156 11.800781 6.066406 C 11.800781 6.101562 11.832031 6.101562 11.832031 6.132812 C 11.832031 6.167969 11.832031 6.199219 11.898438 6.234375 C 11.933594 6.265625 12 6.300781 12.035156 6.332031 L 12.035156 6.367188 C 12 6.433594 12.035156 6.5 12.035156 6.566406 C 12.035156 6.601562 12.035156 6.632812 12 6.632812 L 12 6.667969 C 11.964844 6.667969 11.933594 6.632812 11.964844 6.601562 C 11.964844 6.535156 11.933594 6.464844 12 6.398438 C 12 6.398438 12 6.367188 12.035156 6.332031 L 12 6.332031 C 11.933594 6.332031 11.898438 6.332031 11.867188 6.265625 C 11.832031 6.199219 11.765625 6.199219 11.667969 6.199219 C 11.632812 6.199219 11.632812 6.199219 11.632812 6.234375 L 11.667969 6.265625 C 11.601562 6.332031 11.601562 6.332031 11.566406 6.265625 C 11.535156 6.300781 11.566406 6.332031 11.566406 6.332031 C 11.601562 6.367188 11.632812 6.398438 11.667969 6.398438 C 11.667969 6.433594 11.667969 6.433594 11.699219 6.464844 C 11.632812 6.433594 11.566406 6.398438 11.5 6.398438 C 11.5 6.367188 11.5 6.332031 11.5 6.300781 C 11.5 6.265625 11.5 6.234375 11.5 6.199219 C 11.535156 6.132812 11.5 6.066406 11.464844 6.035156 L 11.464844 6.066406 C 11.5 6.132812 11.464844 6.199219 11.398438 6.234375 C 11.367188 6.265625 11.367188 6.300781 11.367188 6.367188 C 11.398438 6.398438 11.398438 6.433594 11.398438 6.464844 C 11.398438 6.5 11.433594 6.5 11.398438 6.535156 C 11.367188 6.632812 11.367188 6.699219 11.398438 6.832031 C 11.433594 6.832031 11.464844 6.832031 11.5 6.832031 C 11.535156 6.832031 11.566406 6.832031 11.601562 6.832031 C 11.667969 6.867188 11.667969 6.933594 11.699219 6.964844 C 11.699219 7 11.667969 7.035156 11.667969 7.035156 C 11.667969 7.035156 11.699219 7.066406 11.734375 7.101562 C 11.667969 7.101562 11.667969 7.101562 11.667969 7.066406 C 11.699219 7 11.667969 6.933594 11.601562 6.867188 C 11.566406 6.867188 11.566406 6.867188 11.535156 6.898438 C 11.433594 6.933594 11.433594 6.933594 11.464844 7.035156 C 11.464844 7.066406 11.464844 7.101562 11.464844 7.132812 C 11.464844 7.167969 11.433594 7.199219 11.433594 7.234375 C 11.433594 7.234375 11.433594 7.265625 11.398438 7.265625 C 11.367188 7.300781 11.332031 7.332031 11.300781 7.367188 C 11.265625 7.367188 11.234375 7.367188 11.234375 7.367188 C 11.199219 7.367188 11.167969 7.332031 11.199219 7.300781 C 11.234375 7.332031 11.265625 7.367188 11.300781 7.332031 C 11.300781 7.300781 11.300781 7.234375 11.300781 7.234375 C 11.367188 7.234375 11.332031 7.167969 11.367188 7.132812 C 11.398438 7.066406 11.398438 7 11.398438 6.96875 L 11.398438 6.933594 C 11.300781 6.832031 11.398438 6.734375 11.367188 6.632812 C 11.367188 6.566406 11.398438 6.5 11.332031 6.433594 C 11.300781 6.398438 11.300781 6.367188 11.332031 6.332031 C 11.367188 6.265625 11.367188 6.199219 11.367188 6.167969 C 11.367188 6.167969 11.367188 6.132812 11.332031 6.132812 C 11.265625 6.132812 11.199219 6.101562 11.132812 6.101562 C 11.132812 6.132812 11.101562 6.167969 11.101562 6.199219 C 11.101562 6.300781 11.066406 6.398438 10.964844 6.433594 L 10.933594 6.46875 C 10.933594 6.5 10.933594 6.5 10.933594 6.535156 C 10.933594 6.535156 10.964844 6.535156 10.964844 6.566406 C 10.964844 6.632812 10.933594 6.699219 10.933594 6.800781 C 11 6.800781 11.035156 6.832031 11.035156 6.867188 C 11.035156 6.898438 11.066406 6.898438 11.066406 6.933594 C 11.066406 6.96875 11.035156 7 11.035156 7.035156 C 11 7 10.964844 6.933594 10.933594 6.933594 C 10.832031 6.867188 10.734375 6.765625 10.601562 6.765625 C 10.566406 6.765625 10.535156 6.765625 10.5 6.800781 C 10.5 6.800781 10.5 6.832031 10.5 6.867188 C 10.5 6.898438 10.535156 6.933594 10.5 6.96875 C 10.464844 6.96875 10.433594 7 10.464844 7.035156 C 10.464844 7.035156 10.433594 7.035156 10.433594 7.066406 L 10.433594 7.035156 C 10.433594 7 10.433594 6.96875 10.398438 6.933594 C 10.367188 6.96875 10.332031 7 10.300781 7 C 10.265625 7 10.265625 7.035156 10.234375 7.035156 C 10.167969 7.035156 10.101562 7.035156 10.066406 7.132812 C 10.035156 7.101562 10.035156 7.066406 10.035156 7.066406 C 10.035156 7.035156 10.035156 7 10.035156 7 C 10.035156 7.035156 10 7.035156 10 7.066406 C 9.933594 7.035156 9.964844 7.101562 9.964844 7.101562 C 9.933594 7.101562 9.898438 7.101562 9.898438 7.132812 C 9.832031 7.167969 9.765625 7.199219 9.734375 7.234375 C 9.699219 7.265625 9.667969 7.265625 9.667969 7.332031 C 9.667969 7.398438 9.632812 7.398438 9.601562 7.433594 C 9.566406 7.433594 9.535156 7.398438 9.535156 7.398438 C 9.464844 7.332031 9.464844 7.265625 9.566406 7.234375 C 9.566406 7.101562 9.5 7.101562 9.332031 7.101562 C 9.398438 7.132812 9.398438 7.199219 9.398438 7.234375 C 9.398438 7.265625 9.398438 7.265625 9.398438 7.300781 L 9.398438 7.332031 C 9.433594 7.367188 9.433594 7.398438 9.433594 7.433594 C 9.433594 7.46875 9.433594 7.5 9.398438 7.535156 L 9.367188 7.5 C 9.332031 7.464844 9.265625 7.464844 9.234375 7.5 C 9.199219 7.535156 9.167969 7.566406 9.132812 7.566406 C 9.066406 7.601562 9.066406 7.632812 9.101562 7.667969 C 9.101562 7.699219 9.132812 7.734375 9.132812 7.765625 C 9.035156 7.734375 8.964844 7.699219 8.867188 7.667969 C 8.867188 7.699219 8.867188 7.734375 8.867188 7.734375 C 8.867188 7.765625 8.898438 7.765625 8.933594 7.800781 C 8.933594 7.832031 8.933594 7.832031 8.964844 7.867188 C 8.933594 7.898438 8.867188 7.867188 8.832031 7.832031 C 8.800781 7.800781 8.765625 7.800781 8.765625 7.765625 C 8.765625 7.734375 8.734375 7.699219 8.734375 7.667969 L 8.734375 7.632812 C 8.734375 7.601562 8.765625 7.566406 8.734375 7.535156 C 8.667969 7.464844 8.632812 7.433594 8.566406 7.367188 C 8.566406 7.367188 8.601562 7.367188 8.601562 7.398438 C 8.667969 7.433594 8.699219 7.464844 8.765625 7.5 C 8.832031 7.535156 8.898438 7.535156 8.964844 7.566406 C 9 7.566406 9.066406 7.566406 9.101562 7.566406 C 9.167969 7.535156 9.199219 7.5 9.199219 7.433594 C 9.199219 7.332031 9.167969 7.265625 9.035156 7.234375 C 9 7.234375 9 7.199219 8.964844 7.199219 C 8.933594 7.167969 8.898438 7.132812 8.832031 7.066406 L 8.800781 7.035156 C 8.734375 7.035156 8.632812 7 8.601562 6.964844 C 8.601562 6.964844 8.601562 6.933594 8.566406 6.933594 C 8.566406 6.933594 8.601562 6.933594 8.601562 6.964844 C 8.601562 6.933594 8.601562 6.933594 8.535156 6.898438 C 8.535156 6.898438 8.535156 6.933594 8.5 6.933594 L 8.398438 6.933594 C 8.367188 6.898438 8.367188 6.867188 8.332031 6.832031 C 8.398438 6.867188 8.433594 6.832031 8.464844 6.765625 C 8.433594 6.734375 8.367188 6.699219 8.332031 6.667969 C 8.332031 6.699219 8.300781 6.734375 8.300781 6.734375 C 8.300781 6.699219 8.300781 6.667969 8.300781 6.632812 C 8.300781 6.632812 8.265625 6.632812 8.265625 6.601562 C 8.234375 6.667969 8.234375 6.699219 8.199219 6.734375 C 8.199219 6.699219 8.199219 6.667969 8.199219 6.632812 C 8.167969 6.699219 8.132812 6.734375 8.101562 6.800781 C 8.132812 6.765625 8.132812 6.699219 8.167969 6.667969 C 8.132812 6.667969 8.132812 6.632812 8.101562 6.632812 L 8.066406 6.667969 C 8.101562 6.699219 8.066406 6.734375 8.035156 6.734375 C 8 6.765625 8 6.800781 7.964844 6.800781 C 7.933594 6.800781 7.898438 6.765625 7.867188 6.765625 C 7.867188 6.800781 7.898438 6.832031 7.898438 6.832031 C 7.832031 6.800781 7.800781 6.832031 7.800781 6.898438 C 7.800781 6.867188 7.800781 6.832031 7.800781 6.832031 L 7.765625 6.867188 C 7.699219 6.832031 7.734375 6.898438 7.699219 6.898438 L 7.667969 6.898438 C 7.667969 6.933594 7.667969 6.933594 7.667969 6.964844 C 7.632812 6.933594 7.601562 6.933594 7.566406 6.898438 C 7.566406 6.933594 7.535156 6.964844 7.535156 7 C 7.566406 7 7.566406 7 7.601562 7 C 7.632812 7.066406 7.566406 7.066406 7.535156 7.101562 C 7.566406 7.101562 7.566406 7.101562 7.601562 7.132812 L 7.535156 7.132812 L 7.535156 7.199219 C 7.535156 7.167969 7.5 7.167969 7.5 7.167969 C 7.5 7.199219 7.5 7.234375 7.464844 7.234375 C 7.464844 7.234375 7.464844 7.265625 7.433594 7.265625 C 7.398438 7.265625 7.398438 7.300781 7.367188 7.332031 C 7.367188 7.332031 7.367188 7.367188 7.332031 7.367188 C 7.265625 7.398438 7.300781 7.5 7.234375 7.535156 C 7.199219 7.566406 7.199219 7.566406 7.199219 7.601562 L 7.199219 7.667969 C 7.167969 7.667969 7.132812 7.699219 7.167969 7.765625 C 7.101562 7.765625 7.101562 7.832031 7.066406 7.898438 C 7.066406 7.933594 7.101562 7.933594 7.101562 7.964844 C 7.066406 7.964844 7.066406 7.933594 7.035156 7.964844 C 7 7.964844 6.964844 8 6.933594 8.035156 C 6.898438 8.066406 6.867188 8.066406 6.867188 8.101562 C 6.867188 8.101562 6.898438 8.101562 6.898438 8.132812 C 6.867188 8.167969 6.832031 8.167969 6.832031 8.199219 C 6.800781 8.199219 6.800781 8.234375 6.765625 8.265625 C 6.765625 8.265625 6.800781 8.265625 6.800781 8.300781 C 6.765625 8.300781 6.734375 8.367188 6.765625 8.367188 C 6.765625 8.367188 6.765625 8.398438 6.800781 8.398438 C 6.832031 8.398438 6.898438 8.398438 6.933594 8.398438 C 6.933594 8.398438 6.933594 8.433594 6.898438 8.433594 C 6.867188 8.398438 6.832031 8.433594 6.800781 8.433594 C 6.765625 8.433594 6.765625 8.464844 6.800781 8.5 L 6.800781 8.566406 C 6.867188 8.5 6.867188 8.5 6.898438 8.5 C 6.867188 8.535156 6.832031 8.566406 6.832031 8.601562 C 6.800781 8.601562 6.800781 8.632812 6.765625 8.632812 C 6.800781 8.632812 6.800781 8.632812 6.832031 8.632812 C 6.832031 8.667969 6.800781 8.667969 6.800781 8.699219 L 6.800781 8.734375 C 6.832031 8.765625 6.867188 8.800781 6.898438 8.832031 C 6.898438 8.832031 6.933594 8.832031 6.964844 8.800781 C 7.035156 8.765625 7.035156 8.699219 7.101562 8.699219 L 7.101562 8.667969 C 7.101562 8.632812 7.101562 8.632812 7.101562 8.601562 C 7.101562 8.632812 7.132812 8.699219 7.132812 8.734375 C 7.167969 8.832031 7.167969 8.898438 7.234375 9 C 7.265625 9.035156 7.234375 9.101562 7.199219 9.101562 C 7.167969 9.101562 7.167969 9.132812 7.132812 9.132812 C 7.167969 9.167969 7.199219 9.199219 7.199219 9.234375 C 7.199219 9.199219 7.234375 9.167969 7.234375 9.132812 C 7.265625 9.199219 7.300781 9.167969 7.332031 9.167969 C 7.367188 9.101562 7.367188 9.101562 7.433594 9.066406 L 7.464844 9.066406 C 7.5 8.964844 7.5 8.898438 7.535156 8.800781 C 7.535156 8.765625 7.566406 8.699219 7.601562 8.699219 C 7.632812 8.699219 7.632812 8.667969 7.632812 8.667969 C 7.601562 8.667969 7.566406 8.667969 7.535156 8.667969 C 7.535156 8.667969 7.535156 8.667969 7.535156 8.632812 C 7.566406 8.632812 7.601562 8.667969 7.632812 8.632812 C 7.667969 8.632812 7.699219 8.601562 7.699219 8.566406 C 7.699219 8.5 7.632812 8.464844 7.566406 8.5 C 7.566406 8.398438 7.601562 8.332031 7.601562 8.234375 C 7.632812 8.167969 7.667969 8.101562 7.765625 8.066406 C 7.800781 8.035156 7.832031 8 7.867188 7.964844 C 7.867188 7.964844 7.867188 7.933594 7.867188 7.898438 C 7.832031 7.832031 7.867188 7.800781 7.898438 7.765625 C 7.898438 7.734375 7.933594 7.734375 7.964844 7.699219 C 8 7.699219 8.035156 7.699219 8.066406 7.699219 C 8.066406 7.699219 8.066406 7.699219 8.066406 7.667969 L 8.101562 7.699219 C 8.101562 7.734375 8.132812 7.765625 8.132812 7.800781 L 8.101562 7.832031 C 8.066406 7.898438 8.035156 7.964844 7.964844 8.035156 C 7.964844 8.066406 7.933594 8.066406 7.898438 8.066406 C 7.867188 8.101562 7.832031 8.132812 7.832031 8.199219 C 7.832031 8.265625 7.867188 8.332031 7.832031 8.398438 C 7.832031 8.433594 7.832031 8.464844 7.867188 8.464844 C 7.898438 8.5 7.933594 8.5 7.964844 8.535156 L 8 8.535156 C 8.035156 8.535156 8.066406 8.5 8.101562 8.5 C 8.167969 8.464844 8.265625 8.464844 8.332031 8.433594 C 8.300781 8.464844 8.332031 8.5 8.367188 8.5 C 8.398438 8.5 8.398438 8.5 8.433594 8.535156 C 8.367188 8.566406 8.332031 8.566406 8.265625 8.601562 C 8.199219 8.601562 8.132812 8.566406 8.035156 8.601562 C 8 8.632812 7.964844 8.632812 8 8.667969 C 8 8.699219 8 8.765625 8.066406 8.734375 C 8.066406 8.800781 8.066406 8.867188 8.035156 8.898438 C 7.964844 8.898438 7.964844 8.832031 7.898438 8.800781 C 7.867188 8.800781 7.867188 8.832031 7.832031 8.832031 C 7.800781 8.898438 7.765625 8.964844 7.800781 9.035156 C 7.800781 9.066406 7.800781 9.101562 7.800781 9.167969 C 7.734375 9.132812 7.734375 9.167969 7.699219 9.199219 C 7.699219 9.234375 7.667969 9.234375 7.632812 9.234375 C 7.632812 9.234375 7.632812 9.199219 7.601562 9.167969 C 7.535156 9.167969 7.332031 9.234375 7.300781 9.300781 C 7.265625 9.265625 7.265625 9.265625 7.234375 9.265625 C 7.234375 9.234375 7.234375 9.234375 7.234375 9.199219 C 7.167969 9.234375 7.101562 9.265625 7.035156 9.300781 C 7.035156 9.265625 7.035156 9.265625 7.035156 9.265625 C 7 9.265625 6.964844 9.265625 6.964844 9.234375 C 6.933594 9.199219 6.933594 9.167969 6.933594 9.101562 C 6.964844 9.132812 6.964844 9.132812 6.964844 9.132812 L 7 9.132812 C 7 9.101562 7 9.101562 7 9.066406 C 6.964844 9.066406 6.964844 9.066406 6.933594 9.101562 C 6.933594 9.066406 6.964844 9.066406 6.964844 9.035156 C 6.964844 9 7 9 7.035156 8.964844 C 6.964844 8.964844 6.964844 8.933594 6.964844 8.898438 C 6.964844 8.867188 6.964844 8.832031 6.964844 8.800781 C 6.933594 8.832031 6.898438 8.867188 6.867188 8.867188 C 6.800781 8.933594 6.765625 9 6.832031 9.101562 L 6.832031 9.132812 C 6.832031 9.167969 6.832031 9.234375 6.832031 9.265625 C 6.832031 9.300781 6.800781 9.300781 6.800781 9.332031 C 6.765625 9.300781 6.734375 9.300781 6.699219 9.332031 C 6.699219 9.332031 6.699219 9.332031 6.667969 9.332031 C 6.601562 9.332031 6.601562 9.332031 6.566406 9.398438 L 6.566406 9.433594 L 6.566406 9.367188 C 6.566406 9.398438 6.535156 9.464844 6.5 9.535156 C 6.464844 9.535156 6.433594 9.566406 6.367188 9.601562 L 6.332031 9.632812 C 6.332031 9.667969 6.300781 9.699219 6.265625 9.734375 C 6.265625 9.734375 6.234375 9.734375 6.234375 9.765625 C 6.199219 9.800781 6.167969 9.800781 6.132812 9.765625 L 6.101562 9.765625 C 6.101562 9.800781 6.101562 9.832031 6.132812 9.867188 C 6.101562 9.867188 6.066406 9.867188 6.035156 9.867188 C 5.964844 9.832031 5.933594 9.867188 5.898438 9.867188 C 5.898438 9.933594 5.933594 9.933594 5.964844 9.933594 C 6.035156 9.933594 6.066406 9.964844 6.066406 10.035156 C 6.066406 10.035156 6.066406 10.066406 6.101562 10.066406 C 6.167969 10.101562 6.132812 10.132812 6.132812 10.167969 C 6.132812 10.199219 6.132812 10.234375 6.132812 10.234375 C 6.132812 10.332031 6.101562 10.367188 6 10.332031 C 5.898438 10.332031 5.765625 10.300781 5.667969 10.300781 C 5.632812 10.300781 5.601562 10.332031 5.566406 10.367188 L 5.566406 10.433594 C 5.601562 10.535156 5.566406 10.632812 5.535156 10.734375 C 5.535156 10.765625 5.535156 10.800781 5.566406 10.800781 C 5.566406 10.832031 5.566406 10.867188 5.566406 10.898438 L 5.601562 10.898438 C 5.667969 10.898438 5.734375 10.867188 5.765625 10.964844 C 5.765625 11 5.800781 11 5.832031 10.964844 C 5.867188 10.933594 5.898438 10.933594 5.964844 10.933594 C 6.066406 10.964844 6.101562 10.867188 6.132812 10.832031 C 6.167969 10.832031 6.167969 10.765625 6.199219 10.734375 C 6.167969 10.699219 6.167969 10.667969 6.199219 10.632812 C 6.234375 10.566406 6.300781 10.5 6.367188 10.464844 C 6.398438 10.433594 6.433594 10.433594 6.398438 10.367188 C 6.398438 10.332031 6.398438 10.300781 6.433594 10.300781 C 6.464844 10.300781 6.5 10.300781 6.566406 10.300781 C 6.601562 10.300781 6.601562 10.300781 6.632812 10.300781 C 6.699219 10.265625 6.734375 10.234375 6.765625 10.199219 C 6.800781 10.167969 6.800781 10.167969 6.832031 10.199219 C 6.867188 10.199219 6.898438 10.234375 6.898438 10.265625 C 6.898438 10.300781 6.933594 10.332031 6.964844 10.367188 C 6.964844 10.367188 7 10.398438 7.035156 10.398438 C 7.101562 10.433594 7.132812 10.464844 7.199219 10.535156 C 7.234375 10.566406 7.265625 10.566406 7.265625 10.601562 C 7.265625 10.632812 7.300781 10.667969 7.300781 10.699219 C 7.265625 10.734375 7.199219 10.765625 7.132812 10.765625 C 7.101562 10.765625 7.101562 10.765625 7.066406 10.765625 C 7.066406 10.765625 7.066406 10.800781 7.101562 10.800781 C 7.132812 10.832031 7.167969 10.832031 7.199219 10.867188 C 7.234375 10.867188 7.234375 10.867188 7.234375 10.832031 C 7.234375 10.800781 7.234375 10.765625 7.234375 10.734375 L 7.265625 10.734375 C 7.265625 10.699219 7.300781 10.667969 7.300781 10.667969 C 7.332031 10.632812 7.332031 10.632812 7.300781 10.601562 C 7.300781 10.601562 7.300781 10.566406 7.300781 10.535156 L 7.332031 10.535156 C 7.367188 10.535156 7.367188 10.566406 7.398438 10.566406 C 7.367188 10.464844 7.300781 10.464844 7.234375 10.433594 L 7.234375 10.398438 C 7.132812 10.398438 7.101562 10.367188 7.066406 10.300781 C 7.066406 10.265625 7.035156 10.234375 7 10.199219 C 6.933594 10.167969 6.964844 10.132812 6.964844 10.066406 C 6.964844 10.066406 7 10.035156 7.035156 10.035156 C 7.035156 10.066406 7.066406 10.101562 7.066406 10.132812 C 7.101562 10.101562 7.101562 10.101562 7.101562 10.066406 C 7.132812 10.101562 7.132812 10.132812 7.167969 10.167969 C 7.167969 10.199219 7.199219 10.234375 7.199219 10.234375 C 7.234375 10.234375 7.265625 10.265625 7.300781 10.300781 C 7.332031 10.332031 7.398438 10.367188 7.398438 10.398438 C 7.398438 10.464844 7.398438 10.535156 7.433594 10.566406 C 7.433594 10.601562 7.464844 10.632812 7.5 10.667969 C 7.535156 10.699219 7.535156 10.734375 7.566406 10.765625 C 7.535156 10.832031 7.601562 10.898438 7.667969 10.898438 C 7.667969 10.867188 7.667969 10.867188 7.667969 10.832031 L 7.699219 10.832031 C 7.699219 10.832031 7.699219 10.800781 7.667969 10.765625 C 7.699219 10.765625 7.699219 10.800781 7.734375 10.800781 L 7.734375 10.765625 L 7.765625 10.765625 C 7.734375 10.699219 7.699219 10.667969 7.667969 10.667969 C 7.667969 10.632812 7.667969 10.601562 7.667969 10.601562 C 7.667969 10.566406 7.667969 10.566406 7.667969 10.535156 C 7.699219 10.535156 7.734375 10.535156 7.734375 10.566406 C 7.734375 10.566406 7.734375 10.535156 7.734375 10.5 C 7.800781 10.433594 7.832031 10.5 7.898438 10.5 C 7.898438 10.535156 7.867188 10.601562 7.867188 10.632812 L 7.898438 10.601562 C 7.898438 10.632812 7.898438 10.632812 7.898438 10.632812 L 7.898438 10.667969 L 7.867188 10.667969 L 7.867188 10.699219 C 7.898438 10.699219 7.898438 10.734375 7.933594 10.765625 C 7.964844 10.800781 7.964844 10.832031 8.035156 10.832031 C 8.035156 10.832031 8.066406 10.832031 8.066406 10.867188 C 8.132812 10.898438 8.132812 10.898438 8.167969 10.832031 C 8.199219 10.832031 8.199219 10.867188 8.234375 10.867188 C 8.300781 10.898438 8.332031 10.898438 8.398438 10.867188 L 8.433594 10.867188 C 8.464844 10.867188 8.464844 10.867188 8.5 10.867188 C 8.5 10.898438 8.5 10.933594 8.5 10.933594 C 8.5 10.964844 8.5 11 8.5 11.035156 C 8.464844 11.101562 8.433594 11.167969 8.398438 11.265625 C 8.367188 11.332031 8.300781 11.367188 8.234375 11.332031 C 8.199219 11.300781 8.167969 11.300781 8.132812 11.300781 C 8.101562 11.300781 8.066406 11.332031 8.035156 11.332031 C 8 11.332031 7.964844 11.332031 7.964844 11.332031 C 7.898438 11.332031 7.832031 11.300781 7.800781 11.300781 C 7.734375 11.300781 7.699219 11.265625 7.632812 11.234375 C 7.632812 11.234375 7.632812 11.234375 7.601562 11.199219 C 7.566406 11.199219 7.566406 11.167969 7.535156 11.167969 C 7.5 11.167969 7.433594 11.167969 7.398438 11.199219 C 7.367188 11.234375 7.367188 11.265625 7.367188 11.300781 C 7.367188 11.300781 7.367188 11.332031 7.332031 11.332031 C 7.300781 11.332031 7.265625 11.367188 7.265625 11.332031 C 7.199219 11.332031 7.167969 11.300781 7.101562 11.265625 C 7.066406 11.265625 7.066406 11.234375 7.066406 11.234375 C 7.035156 11.167969 6.964844 11.132812 6.898438 11.132812 C 6.800781 11.132812 6.734375 11.066406 6.667969 11.035156 C 6.699219 11 6.734375 11 6.734375 10.964844 C 6.765625 10.933594 6.765625 10.898438 6.765625 10.898438 C 6.734375 10.867188 6.734375 10.832031 6.765625 10.800781 L 6.765625 10.765625 C 6.734375 10.765625 6.734375 10.765625 6.699219 10.800781 C 6.699219 10.734375 6.667969 10.765625 6.632812 10.765625 C 6.601562 10.800781 6.566406 10.800781 6.5 10.765625 C 6.464844 10.765625 6.433594 10.765625 6.367188 10.765625 L 6.332031 10.765625 C 6.234375 10.734375 6.132812 10.765625 6.035156 10.800781 C 5.933594 10.832031 5.867188 10.898438 5.734375 10.898438 L 5.699219 10.898438 C 5.667969 10.898438 5.632812 10.898438 5.632812 10.867188 C 5.601562 10.832031 5.566406 10.832031 5.566406 10.867188 C 5.535156 10.933594 5.5 11 5.433594 11.035156 C 5.367188 11.066406 5.300781 11.167969 5.300781 11.234375 C 5.300781 11.300781 5.265625 11.332031 5.234375 11.367188 C 5.167969 11.433594 5.066406 11.433594 5.035156 11.535156 C 5.035156 11.535156 5.035156 11.535156 5 11.566406 C 5 11.566406 5 11.601562 4.964844 11.601562 C 4.933594 11.699219 4.867188 11.765625 4.832031 11.867188 C 4.832031 11.898438 4.800781 11.933594 4.832031 11.964844 C 4.867188 12 4.867188 12.035156 4.832031 12.066406 L 4.832031 12.101562 C 4.832031 12.132812 4.832031 12.199219 4.832031 12.234375 C 4.832031 12.265625 4.800781 12.300781 4.800781 12.300781 C 4.800781 12.332031 4.765625 12.367188 4.734375 12.398438 C 4.765625 12.433594 4.800781 12.464844 4.800781 12.535156 C 4.800781 12.566406 4.832031 12.601562 4.867188 12.601562 L 4.898438 12.601562 C 4.933594 12.667969 5 12.699219 5.035156 12.765625 C 5.035156 12.765625 5.066406 12.800781 5.066406 12.832031 C 5.066406 12.867188 5.101562 12.898438 5.132812 12.933594 C 5.199219 12.964844 5.265625 13.035156 5.332031 13.066406 C 5.398438 13.101562 5.464844 13.167969 5.566406 13.101562 C 5.632812 13.066406 5.734375 13.066406 5.800781 13.101562 C 5.832031 13.101562 5.867188 13.101562 5.898438 13.101562 C 6 13.035156 6.101562 13 6.234375 13 C 6.300781 13 6.332031 13.035156 6.367188 13.101562 C 6.367188 13.132812 6.398438 13.167969 6.433594 13.132812 C 6.464844 13.132812 6.5 13.132812 6.535156 13.132812 C 6.601562 13.132812 6.667969 13.199219 6.667969 13.265625 C 6.667969 13.300781 6.667969 13.332031 6.632812 13.398438 C 6.632812 13.433594 6.601562 13.464844 6.601562 13.5 C 6.601562 13.5 6.601562 13.535156 6.601562 13.566406 C 6.632812 13.632812 6.699219 13.699219 6.765625 13.765625 C 6.800781 13.800781 6.832031 13.832031 6.832031 13.867188 C 6.867188 13.898438 6.867188 13.964844 6.867188 14 C 6.867188 14.035156 6.867188 14.066406 6.867188 14.101562 C 6.867188 14.132812 6.867188 14.167969 6.898438 14.167969 C 6.933594 14.199219 6.933594 14.300781 6.898438 14.300781 C 6.832031 14.367188 6.800781 14.464844 6.800781 14.535156 C 6.765625 14.632812 6.765625 14.699219 6.832031 14.765625 C 6.933594 14.898438 6.964844 15.066406 7 15.234375 C 7 15.300781 7 15.367188 7.066406 15.433594 C 7.132812 15.464844 7.132812 15.535156 7.167969 15.601562 C 7.199219 15.632812 7.199219 15.699219 7.234375 15.734375 C 7.265625 15.765625 7.265625 15.800781 7.234375 15.832031 C 7.234375 15.832031 7.234375 15.867188 7.265625 15.867188 C 7.433594 15.867188 7.601562 15.898438 7.734375 15.898438 C 7.765625 15.898438 7.800781 15.898438 7.832031 15.898438 C 7.867188 15.867188 7.898438 15.867188 7.933594 15.867188 C 8.035156 15.800781 8.101562 15.699219 8.132812 15.601562 C 8.167969 15.566406 8.167969 15.535156 8.199219 15.5 C 8.265625 15.433594 8.265625 15.367188 8.265625 15.300781 C 8.265625 15.234375 8.265625 15.234375 8.300781 15.234375 C 8.332031 15.234375 8.367188 15.199219 8.367188 15.199219 C 8.398438 15.199219 8.433594 15.167969 8.433594 15.132812 C 8.433594 15.066406 8.464844 14.96875 8.398438 14.898438 C 8.367188 14.867188 8.367188 14.832031 8.433594 14.800781 C 8.464844 14.765625 8.5 14.734375 8.535156 14.734375 C 8.566406 14.699219 8.566406 14.667969 8.601562 14.667969 C 8.667969 14.632812 8.734375 14.601562 8.765625 14.535156 C 8.800781 14.5 8.800781 14.46875 8.800781 14.433594 C 8.800781 14.367188 8.765625 14.300781 8.800781 14.234375 C 8.800781 14.199219 8.800781 14.167969 8.800781 14.167969 C 8.765625 14.101562 8.734375 14.066406 8.734375 14 C 8.734375 14 8.734375 13.96875 8.734375 13.933594 C 8.699219 13.898438 8.699219 13.867188 8.734375 13.832031 C 8.734375 13.800781 8.765625 13.765625 8.765625 13.734375 C 8.800781 13.601562 8.898438 13.566406 9 13.46875 C 9.066406 13.398438 9.132812 13.367188 9.199219 13.300781 C 9.300781 13.199219 9.398438 13.101562 9.433594 12.96875 C 9.433594 12.96875 9.433594 12.933594 9.464844 12.933594 C 9.535156 12.867188 9.535156 12.800781 9.535156 12.699219 C 9.535156 12.667969 9.5 12.667969 9.464844 12.667969 C 9.433594 12.667969 9.398438 12.699219 9.398438 12.699219 C 9.332031 12.699219 9.300781 12.734375 9.234375 12.734375 C 9.199219 12.734375 9.132812 12.734375 9.101562 12.765625 C 9.101562 12.765625 9.066406 12.765625 9.066406 12.734375 C 9.035156 12.699219 9 12.699219 9 12.667969 C 9.035156 12.632812 9.035156 12.632812 9 12.601562 C 8.964844 12.566406 8.933594 12.535156 8.898438 12.5 C 8.867188 12.464844 8.867188 12.464844 8.832031 12.433594 C 8.765625 12.398438 8.734375 12.367188 8.734375 12.332031 C 8.734375 12.300781 8.699219 12.234375 8.667969 12.234375 C 8.601562 12.199219 8.601562 12.132812 8.601562 12.066406 C 8.601562 12.035156 8.566406 11.964844 8.535156 11.933594 C 8.5 11.898438 8.433594 11.867188 8.464844 11.800781 C 8.433594 11.765625 8.398438 11.734375 8.398438 11.667969 C 8.367188 11.601562 8.332031 11.5 8.265625 11.433594 C 8.265625 11.433594 8.265625 11.398438 8.265625 11.367188 C 8.300781 11.398438 8.300781 11.433594 8.332031 11.464844 C 8.332031 11.5 8.367188 11.5 8.398438 11.5 C 8.398438 11.464844 8.433594 11.464844 8.433594 11.433594 C 8.433594 11.433594 8.464844 11.464844 8.464844 11.5 C 8.5 11.566406 8.566406 11.667969 8.601562 11.734375 C 8.601562 11.734375 8.601562 11.765625 8.632812 11.765625 C 8.699219 11.800781 8.734375 11.867188 8.734375 11.933594 C 8.734375 12 8.734375 12.035156 8.800781 12.066406 C 8.832031 12.066406 8.832031 12.132812 8.867188 12.132812 C 8.898438 12.167969 8.898438 12.199219 8.933594 12.234375 C 8.964844 12.265625 8.964844 12.332031 9 12.367188 C 9.035156 12.433594 9.035156 12.5 9.035156 12.566406 L 9.066406 12.601562 C 9.101562 12.601562 9.132812 12.601562 9.167969 12.566406 C 9.167969 12.566406 9.199219 12.566406 9.199219 12.535156 C 9.234375 12.535156 9.265625 12.5 9.300781 12.5 C 9.332031 12.464844 9.398438 12.464844 9.433594 12.433594 C 9.464844 12.398438 9.535156 12.398438 9.566406 12.367188 L 9.601562 12.332031 C 9.632812 12.300781 9.632812 12.300781 9.667969 12.265625 C 9.734375 12.234375 9.800781 12.265625 9.832031 12.199219 L 9.867188 12.199219 C 9.898438 12.167969 9.933594 12.132812 9.964844 12.101562 L 9.964844 12.066406 C 9.964844 12.035156 9.964844 12.035156 10 12 C 10.066406 11.964844 10.066406 11.933594 10.101562 11.867188 L 10.101562 11.832031 C 10.066406 11.800781 10 11.734375 9.933594 11.734375 C 9.898438 11.734375 9.867188 11.667969 9.867188 11.632812 C 9.867188 11.601562 9.867188 11.601562 9.867188 11.566406 C 9.832031 11.632812 9.765625 11.667969 9.734375 11.699219 L 9.699219 11.734375 C 9.667969 11.734375 9.601562 11.734375 9.566406 11.734375 L 9.535156 11.699219 C 9.535156 11.667969 9.535156 11.667969 9.535156 11.632812 L 9.535156 11.601562 C 9.535156 11.632812 9.5 11.632812 9.5 11.667969 C 9.464844 11.632812 9.464844 11.601562 9.464844 11.566406 C 9.464844 11.566406 9.464844 11.535156 9.433594 11.535156 C 9.398438 11.5 9.367188 11.464844 9.332031 11.433594 C 9.300781 11.367188 9.300781 11.332031 9.332031 11.265625 C 9.367188 11.265625 9.398438 11.300781 9.433594 11.300781 C 9.464844 11.332031 9.5 11.367188 9.5 11.433594 C 9.5 11.433594 9.5 11.464844 9.535156 11.464844 C 9.566406 11.5 9.632812 11.535156 9.667969 11.535156 C 9.699219 11.566406 9.800781 11.566406 9.832031 11.535156 C 9.867188 11.5 9.898438 11.5 9.898438 11.535156 C 9.898438 11.601562 9.964844 11.601562 10 11.601562 C 10.035156 11.601562 10.066406 11.601562 10.101562 11.601562 C 10.132812 11.601562 10.167969 11.632812 10.234375 11.601562 C 10.332031 11.601562 10.433594 11.601562 10.535156 11.601562 L 10.566406 11.601562 C 10.601562 11.632812 10.667969 11.699219 10.699219 11.734375 C 10.734375 11.765625 10.765625 11.765625 10.800781 11.765625 L 10.832031 11.765625 C 10.800781 11.765625 10.765625 11.800781 10.734375 11.800781 C 10.765625 11.832031 10.800781 11.832031 10.800781 11.867188 C 10.867188 11.933594 10.933594 11.898438 10.964844 11.832031 C 10.964844 11.832031 10.964844 11.800781 11 11.800781 C 11 11.832031 11 11.867188 11 11.898438 C 11 11.933594 11 11.964844 11 11.964844 C 11 12.066406 11 12.167969 11.066406 12.265625 C 11.132812 12.398438 11.199219 12.566406 11.265625 12.699219 C 11.265625 12.734375 11.300781 12.734375 11.300781 12.765625 C 11.332031 12.800781 11.332031 12.800781 11.367188 12.765625 C 11.367188 12.734375 11.398438 12.734375 11.398438 12.734375 C 11.398438 12.734375 11.398438 12.734375 11.433594 12.699219 C 11.433594 12.667969 11.464844 12.667969 11.5 12.632812 C 11.5 12.566406 11.566406 12.464844 11.535156 12.367188 C 11.535156 12.367188 11.535156 12.332031 11.535156 12.300781 L 11.566406 12.265625 C 11.601562 12.234375 11.632812 12.234375 11.667969 12.199219 C 11.765625 12.132812 11.832031 12.066406 11.933594 12 C 11.964844 11.964844 12 11.964844 12 11.933594 C 12 11.867188 12.035156 11.867188 12.066406 11.832031 C 12.132812 11.867188 12.167969 11.832031 12.199219 11.832031 C 12.234375 11.832031 12.234375 11.800781 12.265625 11.765625 C 12.300781 11.765625 12.332031 11.800781 12.332031 11.832031 C 12.367188 11.867188 12.367188 11.933594 12.398438 11.964844 C 12.433594 12 12.464844 12.035156 12.5 12.101562 C 12.535156 12.132812 12.5 12.199219 12.5 12.265625 C 12.535156 12.300781 12.632812 12.265625 12.667969 12.199219 C 12.734375 12.199219 12.734375 12.265625 12.734375 12.332031 C 12.734375 12.367188 12.734375 12.398438 12.765625 12.433594 C 12.800781 12.5 12.800781 12.601562 12.800781 12.667969 C 12.800781 12.734375 12.800781 12.765625 12.765625 12.800781 C 12.800781 12.832031 12.800781 12.832031 12.832031 12.832031 C 12.898438 12.898438 12.933594 12.964844 12.933594 13.035156 C 12.933594 13.132812 13.035156 13.199219 13.132812 13.265625 C 13.132812 13.265625 13.167969 13.265625 13.199219 13.265625 C 13.199219 13.234375 13.199219 13.234375 13.199219 13.199219 C 13.199219 13.167969 13.167969 13.132812 13.167969 13.101562 C 13.167969 13 13.101562 12.933594 13.035156 12.898438 C 12.964844 12.898438 12.964844 12.867188 12.964844 12.832031 C 12.964844 12.800781 12.964844 12.734375 12.898438 12.734375 C 12.898438 12.699219 12.898438 12.667969 12.898438 12.667969 C 12.898438 12.601562 12.933594 12.535156 12.933594 12.464844 L 12.964844 12.433594 C 12.964844 12.433594 13 12.433594 13 12.464844 L 13 12.5 C 13.066406 12.5 13.101562 12.5 13.132812 12.535156 C 13.167969 12.601562 13.199219 12.632812 13.265625 12.632812 C 13.300781 12.632812 13.300781 12.667969 13.300781 12.699219 C 13.300781 12.734375 13.300781 12.734375 13.300781 12.765625 C 13.332031 12.734375 13.332031 12.734375 13.367188 12.699219 C 13.398438 12.667969 13.398438 12.632812 13.464844 12.632812 C 13.535156 12.632812 13.601562 12.601562 13.601562 12.5 C 13.601562 12.433594 13.601562 12.367188 13.566406 12.300781 C 13.566406 12.265625 13.535156 12.265625 13.535156 12.234375 C 13.464844 12.167969 13.433594 12.132812 13.367188 12.066406 C 13.367188 12.066406 13.367188 12.035156 13.367188 12 C 13.398438 11.933594 13.433594 11.867188 13.535156 11.832031 C 13.566406 11.832031 13.601562 11.832031 13.632812 11.832031 C 13.667969 11.867188 13.667969 11.898438 13.667969 11.933594 C 13.667969 11.867188 13.667969 11.867188 13.734375 11.832031 C 13.765625 11.832031 13.765625 11.832031 13.800781 11.832031 C 13.832031 11.832031 13.867188 11.832031 13.867188 11.800781 C 13.898438 11.800781 13.898438 11.765625 13.933594 11.800781 C 13.933594 11.800781 13.933594 11.800781 13.964844 11.800781 C 14 11.800781 14.035156 11.765625 14.066406 11.765625 C 14.101562 11.765625 14.101562 11.734375 14.132812 11.734375 C 14.167969 11.699219 14.199219 11.667969 14.234375 11.632812 C 14.300781 11.601562 14.332031 11.566406 14.332031 11.5 C 14.398438 11.433594 14.464844 11.332031 14.5 11.234375 C 14.464844 11.234375 14.464844 11.199219 14.433594 11.199219 C 14.464844 11.199219 14.464844 11.167969 14.5 11.167969 L 14.464844 11.132812 L 14.5 11.101562 C 14.464844 11.066406 14.433594 11.035156 14.433594 11 C 14.398438 10.933594 14.398438 10.867188 14.332031 10.867188 C 14.367188 10.832031 14.367188 10.832031 14.367188 10.800781 C 14.398438 10.765625 14.433594 10.765625 14.433594 10.765625 C 14.433594 10.734375 14.5 10.734375 14.535156 10.699219 C 14.535156 10.699219 14.566406 10.699219 14.566406 10.667969 L 14.535156 10.667969 C 14.464844 10.632812 14.433594 10.632812 14.398438 10.667969 L 14.367188 10.667969 C 14.332031 10.632812 14.332031 10.632812 14.300781 10.601562 C 14.300781 10.601562 14.265625 10.566406 14.265625 10.535156 L 14.300781 10.5 C 14.332031 10.5 14.332031 10.5 14.367188 10.464844 C 14.398438 10.433594 14.464844 10.367188 14.5 10.332031 L 14.535156 10.332031 C 14.535156 10.332031 14.535156 10.367188 14.535156 10.398438 C 14.535156 10.433594 14.5 10.433594 14.5 10.464844 C 14.535156 10.5 14.535156 10.5 14.5 10.535156 C 14.535156 10.5 14.566406 10.5 14.601562 10.464844 C 14.632812 10.464844 14.667969 10.433594 14.667969 10.433594 C 14.699219 10.433594 14.734375 10.464844 14.765625 10.464844 C 14.765625 10.5 14.734375 10.535156 14.734375 10.601562 L 14.765625 10.632812 C 14.832031 10.601562 14.867188 10.632812 14.867188 10.699219 C 14.867188 10.699219 14.832031 10.699219 14.832031 10.734375 C 14.933594 10.800781 14.832031 10.867188 14.867188 10.933594 C 14.898438 10.898438 14.964844 10.898438 15 10.867188 C 15.066406 10.832031 15.066406 10.800781 15.066406 10.734375 C 15.066406 10.667969 15 10.601562 14.964844 10.535156 C 14.933594 10.5 14.933594 10.464844 14.964844 10.433594 C 15.035156 10.398438 15.101562 10.367188 15.066406 10.300781 C 15.066406 10.300781 15.066406 10.265625 15.101562 10.265625 C 15.132812 10.234375 15.167969 10.167969 15.234375 10.132812 C 15.265625 10.132812 15.265625 10.167969 15.300781 10.167969 C 15.367188 10.199219 15.433594 10.132812 15.464844 10.101562 C 15.535156 10.035156 15.601562 9.933594 15.667969 9.832031 C 15.734375 9.566406 15.800781 9.300781 15.832031 9 C 15.800781 8.964844 15.765625 8.964844 15.734375 8.964844 C 15.734375 9 15.734375 9 15.734375 9.035156 C 15.699219 9.035156 15.667969 9.035156 15.667969 9.035156 C 15.667969 9 15.667969 9 15.667969 8.964844 C 15.667969 9 15.632812 9 15.632812 9 C 15.632812 8.964844 15.632812 8.933594 15.632812 8.933594 C 15.601562 8.933594 15.566406 8.933594 15.535156 8.898438 C 15.535156 8.867188 15.535156 8.867188 15.535156 8.867188 C 15.632812 8.765625 15.734375 8.632812 15.867188 8.535156 L 15.898438 8.5 C 15.898438 8.464844 15.933594 8.464844 15.933594 8.433594 C 15.933594 8.234375 15.964844 8.035156 15.964844 7.832031 C 16 7.464844 15.933594 6.933594 15.832031 6.433594 Z M 15.832031 6.433594 "/>
<path style=" stroke:none;fill-rule:nonzero;fill:rgb(25.490196%,35.294118%,41.960784%);fill-opacity:1;" d="M 15 10.800781 L 1 10.800781 C 0.433594 10.800781 0 10.367188 0 9.800781 L 0 6.199219 C 0 5.632812 0.433594 5.199219 1 5.199219 L 15 5.199219 C 15.566406 5.199219 16 5.632812 16 6.199219 L 16 9.765625 C 16 10.332031 15.566406 10.800781 15 10.800781 Z M 15 10.800781 "/>
<path style=" stroke:none;fill-rule:nonzero;fill:rgb(100%,100%,100%);fill-opacity:1;" d="M 3.167969 9.300781 L 2.398438 9.300781 L 1.5 6.699219 L 2.234375 6.699219 L 2.734375 8.265625 L 3.234375 6.699219 L 4 6.699219 L 4.5 8.265625 L 5 6.699219 L 5.765625 6.699219 L 4.867188 9.300781 L 4.101562 9.300781 L 3.632812 7.898438 Z M 3.167969 9.300781 "/>
<path style=" stroke:none;fill-rule:nonzero;fill:rgb(100%,100%,100%);fill-opacity:1;" d="M 7.5 9.300781 L 6.765625 9.300781 L 5.867188 6.699219 L 6.601562 6.699219 L 7.101562 8.265625 L 7.601562 6.699219 L 8.332031 6.699219 L 8.832031 8.265625 L 9.332031 6.699219 L 10.101562 6.699219 L 9.199219 9.300781 L 8.433594 9.300781 L 8 7.898438 Z M 7.5 9.300781 "/>
<path style=" stroke:none;fill-rule:nonzero;fill:rgb(100%,100%,100%);fill-opacity:1;" d="M 11.867188 9.300781 L 11.132812 9.300781 L 10.234375 6.699219 L 11 6.699219 L 11.5 8.265625 L 12 6.699219 L 12.699219 6.699219 L 13.199219 8.265625 L 13.699219 6.699219 L 14.464844 6.699219 L 13.566406 9.300781 L 12.800781 9.300781 L 12.332031 7.898438 Z M 11.867188 9.300781 "/>
</g>
</svg>
